REM MD5 0d7b7f760479d088cac914613852b3a8
FILE "Viewpoint (USA).bin" BINARY
  TRACK 01 MODE2/2352
    INDEX 01 00:00:00
  TRACK 02 AUDIO
    INDEX 00 50:19:44
    INDEX 01 50:21:44
  TRACK 03 AUDIO
    INDEX 00 52:24:58
    INDEX 01 52:26:58
REM LEADOUT 55:43:24
